
<svg xmlns="http://www.w3.org/2000/svg" width="60" height="60" viewBox="0 0 60 60">
    <g fill="none">
        <circle cx="29.992" cy="29.861" r="29.813" fill="#a8763e"/>
        <path fill="#F4C7B0" d="M37.434 42.21l-.158 13.482s-8.824 6.302-15.33-.593c0 0-.03-11.01-.505-21.781.003 0 10.909 4.119 15.993 8.891z"/>
        <circle cx="29.794" cy="19.601" r="9.688" fill="#383A45" transform="rotate(-48.22 29.794 19.601)"/>
        <circle cx="22.756" cy="28.192" r="7.47" fill="#383A45" transform="rotate(-50.58 22.756 28.192)"/>
        <circle cx="36.908" cy="27.995" r="7.47" fill="#383A45" transform="rotate(-9.83 36.908 27.995)"/>
        <path fill="#BC7128" d="M27.28 28.971c.176 1.683-1.045 3.19-2.728 3.365-1.682.177-3.189-1.045-3.365-2.727-.176-1.682 1.045-3.19 2.727-3.365.808-.086 1.617.154 2.249.666.631.511 1.033 1.253 1.117 2.061z"/>
        <circle cx="30.037" cy="28.544" r="10.929" fill="#F4C7B0" transform="rotate(-59.9 30.037 28.544)"/>
        <path fill="#383A45" d="M22.576 28.87s2.269-.322 3.61-.17c1.34.15.126-1.458-2.16-1.31-2.287.15-3.162 2.128-1.45 1.48zM34.48 28.87s2.269-.322 3.61-.17c1.341.15.126-1.458-2.163-1.31-2.29.15-3.154 2.128-1.447 1.48z"/>
        <path fill="#F4C7B0" d="M14.793 35.294c-.142 1.324.529 2.603 1.698 3.24 1.17.637 2.608.506 3.643-.332 1.035-.838 1.463-2.217 1.084-3.494-.379-1.276-1.49-2.199-2.815-2.336-.866-.093-1.734.163-2.412.711-.677.549-1.108 1.344-1.198 2.211zM38.667 35.294c-.184 1.798 1.122 3.405 2.92 3.593 1.796.188 3.407-1.114 3.6-2.91.192-1.797-1.106-3.41-2.902-3.607-.868-.095-1.739.16-2.418.709-.679.549-1.11 1.346-1.2 2.215z"/>
        <path fill="#383B47" d="M26.7 32.302c-.08.438-.418.784-.854.877-.436.093-.885-.086-1.137-.453-.253-.367-.26-.85-.016-1.224.242-.374.686-.565 1.125-.484.597.111.992.686.882 1.284zM38.546 31.069c-.111.598-.686.992-1.283.881-.598-.11-.993-.685-.883-1.283.11-.597.683-.993 1.281-.884.6.111.996.687.885 1.286z"/>
        <path fill="#F4C7B0" d="M19.16 29.682h21.806v10.873c0 5.205-4.219 9.424-9.423 9.424H28.59c-2.5.002-4.9-.99-6.669-2.757-1.768-1.768-2.762-4.166-2.762-6.667V29.682z"/>
        <path fill="#43394A" d="M18.834 37.434c-.06-1.182-.385-2.016-.965-2.475-.39-.303-.882-.44-1.372-.38l-.095-.538c.643-.083 1.292.094 1.805.492.708.562 1.101 1.53 1.172 2.874l-.545.027zM41.93 37.51l-.545-.028c.07-1.343.464-2.309 1.172-2.871.511-.4 1.162-.578 1.805-.492l-.096.537c-.492-.057-.988.081-1.379.386-.574.461-.897 1.293-.958 2.468zM30.141 42.154c-1.765 0-2.342-1.513-2.4-2.302l.542-.043c0 .076.162 1.8 1.858 1.8 1.649 0 1.707-1.512 1.707-1.689h.544c0 .774-.468 2.234-2.25 2.234z"/>
        <path fill="#383A45" d="M24.514 32.849c0 .356-.214.677-.543.813-.33.136-.708.06-.96-.192-.251-.252-.326-.631-.189-.96.137-.328.459-.542.815-.541.233 0 .457.093.621.258.165.165.257.389.256.622z"/>
        <circle cx="36.542" cy="32.849" r="1" fill="#383A45"/>
        <path fill="#43394A" d="M30.517 38.367l-.353-.416c.756-.64 1.512-1.53 1.45-1.833-.28-.17-1.022.023-1.445.192l-.373.151v-3.897h.544v3.108c.429-.133 1.097-.287 1.488-.08.161.08.278.23.317.405.177.77-1.2 2.01-1.628 2.37z"/>
        <path fill="#F09978" d="M21.794 46.2s7.22 6.688 15.565 1.074v3.353s-6.303 5.748-15.456.358l-.109-4.785z"/>
        <path fill="#F4EFE2" d="M37.31 37.013s-9.344-.504-14.994.66c0 0-1.172 6.498-.8 8.32 0 0 6.15 5.683 16.798.537.005.008.792-5.417-1.003-9.517z"/>
        <path fill="#F4EFE2" d="M19.172 32.226L23.282 37.752 22.588 38.415 18.877 32.695zM19.233 38.995L21.85 44.473 21.744 45.708 18.877 39.103zM40.737 32.226L36.63 37.752 37.321 38.415 41.032 32.695zM40.676 38.995L38.062 44.473 38.168 45.708 41.032 39.103z"/>
    </g>
</svg>
