
<svg xmlns="http://www.w3.org/2000/svg" width="70" height="70" viewBox="0 0 70 70">
    <g fill="none">
        <circle cx="34.991" cy="34.838" r="34.782" fill="#a8763e"/>
        <rect width="21.741" height="29.591" x="24.638" y="26.538" fill="#F7F9E6" rx="8.34"/>
        <path fill="#0291B5" d="M32.729 19.326H38.285V23.426000000000002H32.729z"/>
        <path fill="#E45754" d="M42.206 38.706h-4.07v-4.07c-.048-1.418-1.21-2.542-2.629-2.542-1.418 0-2.58 1.124-2.628 2.541v4.07h-4.055c-.96-.031-1.861.463-2.35 1.289-.49.826-.49 1.854 0 2.68.489.826 1.39 1.32 2.35 1.288h4.067v4.07c.048 1.418 1.21 2.542 2.628 2.542 1.418 0 2.58-1.124 2.628-2.542v-4.07h4.059c1.417-.048 2.541-1.21 2.541-2.628 0-1.418-1.124-2.58-2.541-2.628z"/>
        <path fill="#F7F9E6" d="M34.347 15.332H36.671V19.326H34.347z"/>
        <path fill="#F7F9E6" d="M21.218 19.868c-.1-.001-.199-.015-.294-.042-.564-.162-.892-.75-.733-1.314.485-1.718 2.409-4.965 6.224-4.965h19.264c.395-.02.768.178.972.516.203.339.203.762 0 1.1-.204.339-.577.537-.972.516H26.415c-3.139 0-4.118 3.28-4.17 3.418-.136.455-.553.768-1.027.77z"/>
        <rect width="9.365" height="3.232" x="30.826" y="23.306" fill="#02485D" rx="1.616"/>
    </g>
</svg>
