
<svg xmlns="http://www.w3.org/2000/svg" width="70" height="70" viewBox="0 0 70 70">
    <g fill="none">
        <circle cx="34.991" cy="34.838" r="34.782" fill="#a8763e"/>
        <path fill="#BAD479" d="M15.309 32.606s.135 2.991-.83 7.873c-.964 4.883 2.06 10.53 9.515 10.53 7.456 0 10.477-5.644 9.512-10.53-.965-4.885-.827-7.873-.827-7.873s-.138-2.991.827-7.877c.965-4.885-2.059-10.529-9.512-10.529S13.53 19.844 14.48 24.73c.95 4.885.83 7.876.83 7.876z"/>
        <path fill="#8CC15F" d="M32.676 32.58v.026s-.023.523.018 1.5c-.306 1.088-1.353 1.796-2.477 1.676-1.124-.12-1.997-1.034-2.067-2.162-.07-1.128.685-2.142 1.786-2.4 1.1-.257 2.226.317 2.664 1.36h.076zM29.368 17.232c1.3 0 2.353 1.054 2.353 2.353 0 1.3-1.054 2.353-2.353 2.353-1.3 0-2.353-1.053-2.353-2.353 0-1.3 1.053-2.353 2.353-2.353zM29.441 43.15c.724.002 1.31.59 1.309 1.314-.001.724-.589 1.31-1.313 1.31-.724-.001-1.31-.588-1.31-1.312 0-.349.138-.683.385-.929.246-.246.58-.384.93-.383zM30.094 23.991c.266-.001.506.158.608.404.103.245.047.528-.141.716-.188.188-.47.244-.716.141-.246-.102-.405-.342-.404-.608 0-.36.293-.653.653-.653zM24.615 16.541c.344 0 .623.28.623.624s-.279.623-.623.623c-.345 0-.624-.279-.624-.623 0-.166.065-.325.182-.442.117-.117.276-.183.442-.182zM23.612 24.953c.404-.001.77.242.926.615.155.374.07.804-.215 1.091-.286.287-.716.373-1.09.218-.374-.155-.618-.52-.618-.924.001-.55.446-.997.997-1zM23.27 37.776c.743.002 1.343.605 1.342 1.347-.001.741-.603 1.342-1.345 1.342s-1.343-.602-1.343-1.344c.001-.743.604-1.345 1.347-1.345zM20.359 41.22c1.8 0 3.259 1.46 3.259 3.26 0 1.8-1.46 3.258-3.26 3.258-1.799 0-3.258-1.459-3.258-3.259 0-.864.342-1.693.954-2.305.61-.611 1.44-.954 2.305-.953zM19.859 24.953c1.137 0 2.059.922 2.059 2.059s-.922 2.059-2.06 2.059c-1.136 0-2.058-.922-2.058-2.06 0-1.136.922-2.058 2.059-2.058zM18.618 17.594c.004.837-.476 1.601-1.233 1.96-.756.359-1.652.247-2.297-.286.607-1.331 1.56-2.475 2.76-3.312.485.405.767 1.005.77 1.638zM17.859 32.606c.419 0 .759.34.759.759s-.34.759-.76.759c-.418 0-.758-.34-.758-.76 0-.418.34-.758.759-.758z"/>
        <path fill="#26341C" d="M32.941 36.876C27.286 30.575 21.542 24.342 15.71 18.18c-.02.03-.041.06-.059.089l-.059.09c-.076.127-.15.254-.223.386-.01.02-.02.04-.033.059-.08.15-.156.294-.226.459-.77 1.712-.986 3.621-.618 5.462.406 2.004.671 4.035.794 6.076 5.324 5.838 10.683 11.65 15.956 17.532 2.018-2.078 2.871-5.023 2.277-7.858-.283-1.356-.462-2.556-.577-3.598z" style="mix-blend-mode:screen"/>
        <path fill="#4D6A32" d="M19.197 40.991c.65-4.43.556-7.138.556-7.138s.094-2.712-.556-7.141c-.249-1.66-.107-3.353.415-4.947.047-.141.097-.294.153-.415l.02-.053c.05-.12.1-.235.15-.35 0-.03.027-.056.041-.082.05-.106.1-.212.153-.312 0-.03.033-.056.047-.082.053-.103.112-.206.171-.295l.044-.07c.065-.106.133-.209.203-.312l.027-.038c1.107-1.652 2.979-2.627 4.967-2.588.206 0 .406 0 .603.03-1.315-1.084-3.02-1.572-4.71-1.35-1.69.224-3.21 1.138-4.199 2.526-.009.013-.018.026-.03.038-.067.103-.137.206-.202.312 0 .023-.026.047-.041.07-.059.097-.118.2-.174.294l-.044.083c-.053.1-.106.205-.156.311 0 .027-.026.053-.038.083-.053.114-.103.23-.15.347 0 .02 0 .038-.023.056-.053.135-.106.273-.153.414-.521 1.597-.663 3.293-.415 4.953.65 4.412.559 7.139.559 7.139s.09 2.708-.56 7.138c-.62 4.247 1.233 9.117 5.807 9.514-2.11-1.823-2.906-5.135-2.465-8.135z" style="mix-blend-mode:screen"/>
        <path fill="#BAD479" d="M15.309 32.606s.135 2.991-.83 7.873c-.964 4.883 2.06 10.53 9.515 10.53 7.456 0 10.477-5.644 9.512-10.53-.965-4.885-.827-7.873-.827-7.873s-.138-2.991.827-7.877c.965-4.885-2.059-10.529-9.512-10.529S13.53 19.844 14.48 24.73c.95 4.885.83 7.876.83 7.876z"/>
        <path fill="#8CC15F" d="M32.676 32.58v.026s-.023.523.018 1.5c-.306 1.088-1.353 1.796-2.477 1.676-1.124-.12-1.997-1.034-2.067-2.162-.07-1.128.685-2.142 1.786-2.4 1.1-.257 2.226.317 2.664 1.36h.076zM29.368 17.232c1.3 0 2.353 1.054 2.353 2.353 0 1.3-1.054 2.353-2.353 2.353-1.3 0-2.353-1.053-2.353-2.353 0-1.3 1.053-2.353 2.353-2.353zM29.441 43.15c.724.002 1.31.59 1.309 1.314-.001.724-.589 1.31-1.313 1.31-.724-.001-1.31-.588-1.31-1.312 0-.349.138-.683.385-.929.246-.246.58-.384.93-.383zM30.094 23.991c.266-.001.506.158.608.404.103.245.047.528-.141.716-.188.188-.47.244-.716.141-.246-.102-.405-.342-.404-.608 0-.36.293-.653.653-.653zM24.615 16.541c.344 0 .623.28.623.624s-.279.623-.623.623c-.345 0-.624-.279-.624-.623 0-.166.065-.325.182-.442.117-.117.276-.183.442-.182zM23.612 24.953c.404-.001.77.242.926.615.155.374.07.804-.215 1.091-.286.287-.716.373-1.09.218-.374-.155-.618-.52-.618-.924.001-.55.446-.997.997-1zM23.27 37.776c.743.002 1.343.605 1.342 1.347-.001.741-.603 1.342-1.345 1.342s-1.343-.602-1.343-1.344c.001-.743.604-1.345 1.347-1.345zM20.359 41.22c1.8 0 3.259 1.46 3.259 3.26 0 1.8-1.46 3.258-3.26 3.258-1.799 0-3.258-1.459-3.258-3.259 0-.864.342-1.693.954-2.305.61-.611 1.44-.954 2.305-.953zM19.859 24.953c1.137 0 2.059.922 2.059 2.059s-.922 2.059-2.06 2.059c-1.136 0-2.058-.922-2.058-2.06 0-1.136.922-2.058 2.059-2.058zM18.618 17.594c.004.837-.476 1.601-1.233 1.96-.756.359-1.652.247-2.297-.286.607-1.331 1.56-2.475 2.76-3.312.485.405.767 1.005.77 1.638zM17.859 32.606c.419 0 .759.34.759.759s-.34.759-.76.759c-.418 0-.758-.34-.758-.76 0-.418.34-.758.759-.758z"/>
        <path fill="#26341C" d="M32.941 36.876C27.286 30.575 21.542 24.342 15.71 18.18c-.02.03-.041.06-.059.089l-.059.09c-.076.127-.15.254-.223.386-.01.02-.02.04-.033.059-.08.15-.156.294-.226.459-.77 1.712-.986 3.621-.618 5.462.406 2.004.671 4.035.794 6.076 5.324 5.838 10.683 11.65 15.956 17.532 2.018-2.078 2.871-5.023 2.277-7.858-.283-1.356-.462-2.556-.577-3.598z" style="mix-blend-mode:screen"/>
        <path fill="#DAE8B9" d="M29.162 31.7c-7.841 1.241-13.412 9.641-11.22 17.63 1.523 1.038 3.529 1.679 6.04 1.679 7.444 0 10.477-5.644 9.512-10.53-.965-4.885-.826-7.873-.826-7.873s-.015-.35 0-.991c-1.17-.057-2.341-.029-3.506.085z"/>
        <path fill="#4D6A32" d="M19.197 40.991c.65-4.43.556-7.138.556-7.138s.094-2.712-.556-7.141c-.249-1.66-.107-3.353.415-4.947.047-.141.097-.294.153-.415l.02-.053c.05-.12.1-.235.15-.35 0-.03.027-.056.041-.082.05-.106.1-.212.153-.312 0-.03.033-.056.047-.082.053-.103.112-.206.171-.295l.044-.07c.065-.106.133-.209.203-.312l.027-.038c1.107-1.652 2.979-2.627 4.967-2.588.206 0 .406 0 .603.03-1.315-1.084-3.02-1.572-4.71-1.35-1.69.224-3.21 1.138-4.199 2.526-.009.013-.018.026-.03.038-.067.103-.137.206-.202.312 0 .023-.026.047-.041.07-.059.097-.118.2-.174.294l-.044.083c-.053.1-.106.205-.156.311 0 .027-.026.053-.038.083-.053.114-.103.23-.15.347 0 .02 0 .038-.023.056-.053.135-.106.273-.153.414-.521 1.597-.663 3.293-.415 4.953.65 4.412.559 7.139.559 7.139s.09 2.708-.56 7.138c-.62 4.247 1.233 9.117 5.807 9.514-2.11-1.823-2.906-5.135-2.465-8.135z" style="mix-blend-mode:screen"/>
        <path fill="#6A5433" d="M23.403 49.47c0-6.529 4.235-9.188 7.9-8.34 3.588.826 5.806.729 5.9.723 0 0 .373.018 1.059 0 1.634-.095 3.257-.333 4.85-.712 1.575-.367 3.232-.067 4.58.83-1.392-3.353-4.413-4.645-7.118-4.018-1.594.379-3.218.617-4.853.712-.686.03-1.056 0-1.056 0-.094 0-2.315.103-5.9-.724-3.665-.847-7.9 1.812-7.9 8.341 0 2.703.73 4.744 1.84 6.144v.018c.083.103.166.203.254.294.024.03.05.059.076.086.065.07.133.14.2.208l.115.11.18.16.138.119c.056.047.114.09.173.135l.144.109.186.123c-.538-1.374-.799-2.842-.768-4.317z" style="mix-blend-mode:screen"/>
        <path fill="#FECC50" d="M37.556 54.474s2.991-.136 7.876.829c4.886.965 10.53-2.059 10.53-9.515s-5.644-10.476-10.53-9.512c-4.885.965-7.876.827-7.876.827s-2.988.138-7.874-.827c-4.885-.964-10.53 2.06-10.53 9.512 0 7.453 5.645 10.48 10.53 9.515 4.886-.965 7.874-.83 7.874-.83z"/>
        <path fill="#F0AC1C" d="M31.906 46.176c0 .552-.447 1-1 1-.551.001-.999-.446-1-.998-.001-.551.445-1 .997-1.002.266 0 .52.105.709.292.188.188.294.443.294.708zM24.706 53.32c0 .497-.17.98-.482 1.365-1.334-.602-2.479-1.556-3.312-2.759.584-.688 1.536-.938 2.383-.627.848.311 1.411 1.119 1.41 2.022zM22.115 44.55c.251-.001.479.15.575.382.097.232.044.5-.134.677-.177.178-.445.231-.677.134-.232-.096-.383-.324-.382-.575.002-.34.277-.616.618-.618zM24.53 38.068c1.299 0 2.352 1.053 2.352 2.353 0 1.3-1.053 2.353-2.353 2.353-1.3 0-2.353-1.054-2.353-2.353 0-1.3 1.054-2.353 2.353-2.353zM29.594 39.035c.266 0 .505.16.606.406.102.245.045.528-.143.715-.188.187-.47.243-.716.14-.245-.102-.404-.342-.403-.608 0-.174.068-.34.192-.463.123-.123.29-.191.464-.19zM37.556 37.103s.53.023 1.503-.018c1.097.303 1.815 1.354 1.7 2.486-.117 1.132-1.033 2.016-2.169 2.09-1.136.074-2.16-.682-2.422-1.79-.262-1.107.313-2.242 1.361-2.686v-.076l.027-.006zM49.412 39.035c.53 0 1.006.32 1.209.808.203.49.09 1.052-.284 1.427-.374.374-.937.486-1.426.283-.49-.202-.808-.68-.808-1.209 0-.723.586-1.309 1.309-1.309zM44.07 45.168c.745 0 1.348.603 1.348 1.347s-.603 1.347-1.347 1.347-1.347-.603-1.347-1.347c-.001-.358.14-.7.393-.954.253-.252.596-.394.954-.393zM38.315 51.176c.419 0 .759.34.759.76 0 .418-.34.758-.76.758-.418 0-.758-.34-.758-.759 0-.201.079-.395.221-.537.143-.143.336-.222.538-.222zM31.974 47.859c1.137 0 2.058.922 2.058 2.059s-.921 2.058-2.058 2.058c-1.138 0-2.06-.921-2.06-2.058 0-1.137.922-2.06 2.06-2.06zM49.432 46.176c1.32 0 2.51.793 3.014 2.012.505 1.219.225 2.622-.708 3.554-.934.932-2.337 1.209-3.555.702-1.218-.507-2.01-1.698-2.007-3.018.004-1.795 1.46-3.25 3.256-3.25z"/>
        <path fill="#534028" d="M24.085 48.894c0-6.859 5.368-9.653 10.015-8.762 4.647.892 7.494.75 7.494.75s2.844.127 7.491-.761c1.775-.35 3.614-.145 5.268.588-1.93-2.835-5.37-3.897-8.485-3.3-4.65.882-7.494.762-7.494.762s-2.845.126-7.492-.762-10.017 1.903-10.017 8.759c0 4.258 2.059 6.947 4.75 8.161-.947-1.364-1.53-3.179-1.53-5.435z" style="mix-blend-mode:screen"/>
        <path fill="#372B1B" d="M36.856 37.109c-2.411-.065-4.812-.343-7.174-.833-1.814-.36-3.695-.155-5.388.589 7.112 6.197 14.227 12.323 21.341 18.476 3.15.547 6.577-.556 8.583-3.42L36.856 37.109z"/>
        <circle fill="#BEDFF5" style="mix-blend-mode:multiply" cx="40.941" cy="22.482" r="1.379"/>
        <path fill="#FFF" d="M41.303 23.509c-.068 0-.13-.04-.156-.103-.019-.041-.02-.088-.003-.13.017-.043.05-.076.091-.094.137-.057.254-.153.336-.276.057-.065.153-.076.224-.028.07.049.094.143.055.22-.119.175-.286.313-.482.396-.02.01-.043.014-.065.015zM40.015 22.647c-.095 0-.17-.076-.17-.17-.002-.533.38-.988.905-1.08.044-.008.09.003.126.029.036.026.06.065.068.11.016.09-.044.179-.135.196-.363.062-.628.377-.627.744 0 .094-.074.17-.167.171z"/>
        <path fill="#BEDFF5" d="M49.074 24.344c0 1.028-.834 1.862-1.862 1.862s-1.862-.834-1.862-1.862.834-1.862 1.862-1.862 1.862.834 1.862 1.862z" style="mix-blend-mode:multiply"/>
        <path fill="#FFF" d="M47.52 25.818c-.095-.002-.175-.074-.186-.17-.012-.094.05-.183.142-.207.22-.054.42-.173.571-.341.07-.081.194-.09.275-.02.081.072.09.195.02.276-.204.226-.47.385-.766.459l-.055.003zM45.882 24.535c-.105 0-.19-.085-.19-.19 0-.835.677-1.511 1.51-1.513.107.002.192.088.192.194 0 .106-.085.192-.191.192-.622.001-1.125.505-1.127 1.126-.001.106-.088.191-.194.191z"/>
        <path fill="#BEDFF5" d="M46.282 18.294c-.005.514-.424.927-.938.924-.514-.004-.928-.422-.926-.936.001-.513.418-.929.932-.93.25 0 .488.1.663.276.176.177.273.417.27.666z" style="mix-blend-mode:multiply"/>
        <path fill="#FFF" d="M45.35 19.118c-.062 0-.112-.05-.112-.112s.05-.113.112-.115c.143 0 .28-.05.388-.144.048-.031.112-.023.15.02.037.043.037.107 0 .15-.15.13-.34.2-.538.2zM44.647 18.409c-.063 0-.115-.052-.115-.115.002-.45.367-.816.818-.818.045-.007.09.013.114.051.025.038.025.087 0 .125-.024.038-.07.058-.114.05-.325 0-.588.264-.588.59 0 .03-.011.06-.033.082-.021.022-.051.035-.082.035z"/>
        <circle fill="#BEDFF5" style="mix-blend-mode:multiply" cx="48.591" cy="34.547" r="6.274"/>
        <path fill="#FFF" d="M48.591 41.112c-2.656 0-5.051-1.6-6.068-4.055-1.016-2.455-.454-5.28 1.425-7.158 1.88-1.878 4.704-2.44 7.159-1.422 2.454 1.018 4.053 3.413 4.052 6.07-.005 3.625-2.943 6.562-6.568 6.565zm0-12.544c-3.302 0-5.98 2.677-5.98 5.98 0 3.301 2.678 5.978 5.98 5.978 3.303 0 5.98-2.677 5.98-5.979-.002-3.302-2.678-5.978-5.98-5.98z"/>
        <path fill="#FFF" d="M44.118 35c-.25 0-.452-.201-.453-.45.003-2.715 2.202-4.916 4.917-4.92.17-.014.334.069.423.214.09.145.09.328 0 .474-.09.145-.253.228-.423.214-2.216.005-4.011 1.802-4.014 4.018-.002.248-.202.448-.45.45zM50.33 39.118c-.181 0-.345-.107-.415-.274-.094-.228.011-.49.238-.588.609-.259 1.145-.663 1.562-1.177.075-.093.184-.152.302-.164.12-.012.238.024.33.1.194.157.224.44.068.635-.51.628-1.165 1.121-1.91 1.438-.056.021-.115.031-.176.03z"/>
        <path fill="#BEDFF5" d="M44.141 30.762c.001 1.261-.757 2.399-1.922 2.882-1.165.484-2.507.218-3.399-.674-.892-.891-1.16-2.232-.677-3.398.482-1.165 1.62-1.925 2.88-1.925 1.721 0 3.117 1.394 3.118 3.115z" style="mix-blend-mode:multiply"/>
        <path fill="#FFF" d="M41.024 34.17c-1.883 0-3.41-1.526-3.41-3.408 0-1.883 1.527-3.41 3.41-3.41 1.882 0 3.408 1.527 3.408 3.41-.001 1.882-1.527 3.407-3.408 3.409zm0-6.232c-1.56 0-2.824 1.264-2.824 2.824 0 1.56 1.264 2.823 2.824 2.823 1.559 0 2.823-1.264 2.823-2.823-.003-1.558-1.266-2.82-2.823-2.82v-.004z"/>
        <path fill="#FFF" d="M41.765 33.124c-.133 0-.246-.096-.267-.226-.022-.13.053-.258.178-.3.277-.099.528-.256.736-.463.067-.073.169-.103.265-.079.096.025.172.1.196.196.024.096-.006.198-.079.266-.265.264-.585.465-.938.588-.03.01-.06.016-.091.018zM39.159 29.844c-.052 0-.103-.016-.147-.044-.125-.081-.161-.247-.083-.374.457-.715 1.246-1.147 2.095-1.147.149 0 .27.122.27.271 0 .15-.121.27-.27.27-.663 0-1.28.338-1.636.898-.05.078-.136.126-.23.126z"/>
        <path fill="#BEDFF5" d="M40.82 34.153c0 2.826-2.29 5.118-5.117 5.118-2.826 0-5.118-2.292-5.118-5.118 0-2.826 2.292-5.118 5.118-5.118 2.826.002 5.116 2.292 5.118 5.118z" style="mix-blend-mode:multiply"/>
        <path fill="#FFF" d="M35.703 39.565c-2.989 0-5.412-2.423-5.412-5.412s2.423-5.412 5.412-5.412 5.412 2.423 5.412 5.412c-.004 2.987-2.425 5.408-5.412 5.412zm0-10.236c-1.952 0-3.713 1.177-4.46 2.98-.746 1.804-.333 3.88 1.048 5.26s3.458 1.793 5.261 1.045 2.979-2.509 2.977-4.461c-.003-2.664-2.162-4.822-4.826-4.824z"/>
        <path fill="#FFF" d="M37.27 38.026c-.21-.003-.39-.15-.435-.356-.045-.205.057-.415.247-.505.74-.34 1.328-.939 1.656-1.683.1-.228.366-.332.594-.232.229.1.333.366.233.594-.416.948-1.165 1.71-2.106 2.141-.059.029-.123.043-.188.041zM31.938 34.606c-.12 0-.235-.048-.319-.133-.084-.085-.132-.2-.13-.32.002-2.326 1.888-4.212 4.214-4.215.235.02.416.216.416.452 0 .236-.18.432-.416.451-1.828.002-3.31 1.484-3.312 3.312 0 .25-.203.453-.453.453z"/>
    </g>
</svg>
