
<svg xmlns="http://www.w3.org/2000/svg" width="60" height="60" viewBox="0 0 60 60">
    <g fill="none" fill-rule="evenodd">
        <circle cx="29.992" cy="29.861" r="29.813" fill="#a8763e" fill-rule="nonzero"/>
        <path fill="#FBEFEB" fill-rule="nonzero" d="M30 49.576c1.792-.013 3.242-1.463 3.255-3.255V10.482C33.242 8.69 31.792 7.24 30 7.228c-1.795.005-3.248 1.46-3.252 3.254v35.839c.004 1.795 1.457 3.25 3.252 3.255z"/>
        <path fill="#FBEFEB" fill-rule="nonzero" d="M24.514 47.017c0 3.026 2.453 5.48 5.48 5.48 3.026.001 5.48-2.45 5.482-5.477.001-3.026-2.45-5.481-5.476-5.484-1.455-.002-2.85.575-3.88 1.603-1.028 1.028-1.606 2.423-1.606 3.878z"/>
        <path fill="#E94B5A" fill-rule="nonzero" d="M26.806 47.017c0 1.76 1.427 3.188 3.187 3.189 1.76 0 3.19-1.425 3.191-3.186.002-1.76-1.423-3.19-3.184-3.192-.847-.002-1.66.333-2.259.931-.6.599-.936 1.41-.935 2.258z"/>
        <path fill="#DEDADA" fill-rule="nonzero" d="M31.316 10.924c.021-.487-.226-.945-.644-1.195-.418-.25-.939-.25-1.357 0-.418.25-.665.708-.644 1.195v6.806h2.645v-6.806z"/>
        <path fill="#E94B5A" fill-rule="nonzero" d="M28.671 17.735v28.147c-.02.487.226.945.644 1.195.418.249.94.249 1.357 0 .418-.25.665-.708.644-1.195V17.735h-2.645z"/>
        <path stroke="#061923" stroke-linecap="round" stroke-linejoin="round" d="M30.313 13.397L33.247 13.397M30.313 24.242L33.247 24.242M31.78 15.565L33.247 15.565M31.78 17.735L33.247 17.735M31.78 22.074L33.247 22.074M31.78 19.903L33.247 19.903M30.313 35.09L33.247 35.09M31.78 26.413L33.247 26.413M31.78 28.581L33.247 28.581M31.78 32.919L33.247 32.919M31.78 30.751L33.247 30.751"/>
    </g>
</svg>
